<svg xmlns="http://www.w3.org/2000/svg" viewBox="0 0 512 512" width="256" height="256"><path fill="#e64c42" d="M418.63 93.37c89.83 89.82 89.83 235.439 0 325.26-89.82 89.83-235.44 89.83-325.26 0-89.83-89.82-89.83-235.44 0-325.26 89.82-89.83 235.44-89.83 325.26 0z" class="colore64c42 svgShape"></path><path fill="#ffffff" d="m270.143 256 77.778-77.779c3.905-3.905 3.905-10.237 0-14.143-3.906-3.905-10.236-3.905-14.143 0L256 241.857l-77.779-77.779c-3.905-3.905-10.237-3.905-14.143 0-3.905 3.905-3.905 10.237 0 14.143L241.857 256l-77.778 77.778c-3.905 3.905-3.905 10.237 0 14.143a9.972 9.972 0 0 0 7.071 2.929 9.97 9.97 0 0 0 7.071-2.929L256 270.143l77.778 77.778c1.953 1.952 4.512 2.929 7.071 2.929s5.118-.977 7.071-2.929c3.905-3.905 3.905-10.237 0-14.143L270.143 256z" class="colorfff svgShape"></path></svg>