<svg id="SvgjsSvg1021" width="256" height="256" xmlns="http://www.w3.org/2000/svg" version="1.1" xmlns:xlink="http://www.w3.org/1999/xlink" xmlns:svgjs="http://svgjs.com/svgjs"><defs id="SvgjsDefs1022"></defs><g id="SvgjsG1023"><svg xmlns="http://www.w3.org/2000/svg" viewBox="0 0 24 24" width="256" height="256"><defs><linearGradient id="a" x1="20.329" x2="3.671" y1="20.329" y2="3.671" gradientUnits="userSpaceOnUse"><stop offset="0" stop-color="#60efff" class="stopColor60efff svgShape"></stop><stop offset=".117" stop-color="#5ff1f2" class="stopColor5ff1f2 svgShape"></stop><stop offset=".503" stop-color="#5ef6ca" class="stopColor5ef6ca svgShape"></stop><stop offset=".811" stop-color="#5cf9b2" class="stopColor5cf9b2 svgShape"></stop><stop offset="1" stop-color="#5cfaa9" class="stopColor5cfaa9 svgShape"></stop></linearGradient></defs><rect width="22" height="16" x="1" y="4" fill="url(#a)" data-name="Layer 4" rx="4"></rect><g fill="#212529" data-name="Layer 5" class="color212529 svgShape"><path d="M19 3H5a5.006 5.006 0 0 0-5 5v8a5.006 5.006 0 0 0 5 5h14a5.006 5.006 0 0 0 5-5V8a5.006 5.006 0 0 0-5-5Zm3 13a3.003 3.003 0 0 1-3 3H5a3.003 3.003 0 0 1-3-3V8a3.003 3.003 0 0 1 3-3h14a3.003 3.003 0 0 1 3 3Z" fill="#000000" class="color000 svgShape"></path><path d="M17 11H7a1 1 0 0 0 0 2h10a1 1 0 0 0 0-2zm0-4H7a1 1 0 0 0 0 2h10a1 1 0 0 0 0-2zm0 8H7a1 1 0 0 0 0 2h10a1 1 0 0 0 0-2z" fill="#000000" class="color000 svgShape"></path></g></svg></g></svg>